<mxfile host="app.diagrams.net" modified="2023-09-27T07:56:27.585Z" agent="Mozilla/5.0 (Windows NT 10.0; Win64; x64) AppleWebKit/537.36 (KHTML, like Gecko) Chrome/117.0.0.0 Safari/537.36" etag="ltptYUKvUiIUvJdTU9N5" version="21.8.2" type="device">
  <diagram id="R2lEEEUBdFMjLlhIrx00" name="Page-1">
    <mxGraphModel dx="2885" dy="1022" grid="1" gridSize="10" guides="1" tooltips="1" connect="1" arrows="1" fold="1" page="1" pageScale="1" pageWidth="850" pageHeight="1100" math="0" shadow="0" extFonts="Permanent Marker^https://fonts.googleapis.com/css?family=Permanent+Marker">
      <root>
        <mxCell id="0" />
        <mxCell id="1" parent="0" />
        <mxCell id="AsFMAXPC-iEJAhvBXa8g-2" value="department" style="rounded=0;whiteSpace=wrap;html=1;" parent="1" vertex="1">
          <mxGeometry x="800" y="400" width="120" height="40" as="geometry" />
        </mxCell>
        <mxCell id="AsFMAXPC-iEJAhvBXa8g-3" value="project_manager" style="rounded=0;whiteSpace=wrap;html=1;" parent="1" vertex="1">
          <mxGeometry x="-41" y="240" width="120" height="40" as="geometry" />
        </mxCell>
        <mxCell id="AsFMAXPC-iEJAhvBXa8g-5" value="admin" style="rounded=0;whiteSpace=wrap;html=1;" parent="1" vertex="1">
          <mxGeometry x="360" y="40" width="120" height="40" as="geometry" />
        </mxCell>
        <mxCell id="AsFMAXPC-iEJAhvBXa8g-12" value="a_id" style="ellipse;whiteSpace=wrap;html=1;" parent="1" vertex="1">
          <mxGeometry x="220" y="80" width="100" height="50" as="geometry" />
        </mxCell>
        <mxCell id="AsFMAXPC-iEJAhvBXa8g-13" value="u_name" style="ellipse;whiteSpace=wrap;html=1;" parent="1" vertex="1">
          <mxGeometry x="240" y="145" width="100" height="50" as="geometry" />
        </mxCell>
        <mxCell id="AsFMAXPC-iEJAhvBXa8g-14" value="password" style="ellipse;whiteSpace=wrap;html=1;" parent="1" vertex="1">
          <mxGeometry x="430" y="200" width="100" height="50" as="geometry" />
        </mxCell>
        <mxCell id="AsFMAXPC-iEJAhvBXa8g-15" value="address" style="ellipse;whiteSpace=wrap;html=1;" parent="1" vertex="1">
          <mxGeometry x="520" y="80" width="100" height="50" as="geometry" />
        </mxCell>
        <mxCell id="AsFMAXPC-iEJAhvBXa8g-16" value="cont_no" style="ellipse;whiteSpace=wrap;html=1;" parent="1" vertex="1">
          <mxGeometry x="310" y="200" width="100" height="50" as="geometry" />
        </mxCell>
        <mxCell id="AsFMAXPC-iEJAhvBXa8g-17" value="email" style="ellipse;whiteSpace=wrap;html=1;" parent="1" vertex="1">
          <mxGeometry x="500" y="145" width="100" height="50" as="geometry" />
        </mxCell>
        <mxCell id="AsFMAXPC-iEJAhvBXa8g-19" value="" style="endArrow=none;html=1;rounded=0;entryX=0.5;entryY=1;entryDx=0;entryDy=0;exitX=1;exitY=0.5;exitDx=0;exitDy=0;" parent="1" source="AsFMAXPC-iEJAhvBXa8g-12" target="AsFMAXPC-iEJAhvBXa8g-5" edge="1">
          <mxGeometry width="50" height="50" relative="1" as="geometry">
            <mxPoint x="380" y="350" as="sourcePoint" />
            <mxPoint x="430" y="300" as="targetPoint" />
          </mxGeometry>
        </mxCell>
        <mxCell id="AsFMAXPC-iEJAhvBXa8g-20" value="" style="endArrow=none;html=1;rounded=0;entryX=0.5;entryY=1;entryDx=0;entryDy=0;exitX=0.5;exitY=0;exitDx=0;exitDy=0;" parent="1" source="AsFMAXPC-iEJAhvBXa8g-16" target="AsFMAXPC-iEJAhvBXa8g-5" edge="1">
          <mxGeometry width="50" height="50" relative="1" as="geometry">
            <mxPoint x="330" y="115" as="sourcePoint" />
            <mxPoint x="370" y="90" as="targetPoint" />
          </mxGeometry>
        </mxCell>
        <mxCell id="AsFMAXPC-iEJAhvBXa8g-21" value="" style="endArrow=none;html=1;rounded=0;entryX=0.5;entryY=1;entryDx=0;entryDy=0;exitX=0.5;exitY=0;exitDx=0;exitDy=0;" parent="1" source="AsFMAXPC-iEJAhvBXa8g-14" target="AsFMAXPC-iEJAhvBXa8g-5" edge="1">
          <mxGeometry width="50" height="50" relative="1" as="geometry">
            <mxPoint x="340" y="125" as="sourcePoint" />
            <mxPoint x="380" y="100" as="targetPoint" />
          </mxGeometry>
        </mxCell>
        <mxCell id="AsFMAXPC-iEJAhvBXa8g-22" value="" style="endArrow=none;html=1;rounded=0;entryX=0.5;entryY=1;entryDx=0;entryDy=0;exitX=1;exitY=0;exitDx=0;exitDy=0;" parent="1" source="AsFMAXPC-iEJAhvBXa8g-13" target="AsFMAXPC-iEJAhvBXa8g-5" edge="1">
          <mxGeometry width="50" height="50" relative="1" as="geometry">
            <mxPoint x="350" y="135" as="sourcePoint" />
            <mxPoint x="390" y="110" as="targetPoint" />
          </mxGeometry>
        </mxCell>
        <mxCell id="AsFMAXPC-iEJAhvBXa8g-23" value="" style="endArrow=none;html=1;rounded=0;entryX=0.5;entryY=1;entryDx=0;entryDy=0;exitX=0;exitY=0;exitDx=0;exitDy=0;" parent="1" source="AsFMAXPC-iEJAhvBXa8g-17" target="AsFMAXPC-iEJAhvBXa8g-5" edge="1">
          <mxGeometry width="50" height="50" relative="1" as="geometry">
            <mxPoint x="490" y="210" as="sourcePoint" />
            <mxPoint x="460" y="90" as="targetPoint" />
          </mxGeometry>
        </mxCell>
        <mxCell id="AsFMAXPC-iEJAhvBXa8g-24" value="" style="endArrow=none;html=1;rounded=0;entryX=0.5;entryY=1;entryDx=0;entryDy=0;exitX=0;exitY=0.5;exitDx=0;exitDy=0;" parent="1" source="AsFMAXPC-iEJAhvBXa8g-15" target="AsFMAXPC-iEJAhvBXa8g-5" edge="1">
          <mxGeometry width="50" height="50" relative="1" as="geometry">
            <mxPoint x="500" y="220" as="sourcePoint" />
            <mxPoint x="470" y="100" as="targetPoint" />
          </mxGeometry>
        </mxCell>
        <mxCell id="AsFMAXPC-iEJAhvBXa8g-25" value="pm_id" style="ellipse;whiteSpace=wrap;html=1;" parent="1" vertex="1">
          <mxGeometry x="-131" y="320" width="100" height="50" as="geometry" />
        </mxCell>
        <mxCell id="AsFMAXPC-iEJAhvBXa8g-26" value="pm_pass" style="ellipse;whiteSpace=wrap;html=1;" parent="1" vertex="1">
          <mxGeometry x="69" y="320" width="100" height="50" as="geometry" />
        </mxCell>
        <mxCell id="AsFMAXPC-iEJAhvBXa8g-28" value="pm_uname" style="ellipse;whiteSpace=wrap;html=1;" parent="1" vertex="1">
          <mxGeometry x="-31" y="360" width="100" height="50" as="geometry" />
        </mxCell>
        <mxCell id="AsFMAXPC-iEJAhvBXa8g-29" value="" style="endArrow=none;html=1;rounded=0;entryX=1;entryY=0;entryDx=0;entryDy=0;exitX=0.5;exitY=1;exitDx=0;exitDy=0;" parent="1" source="AsFMAXPC-iEJAhvBXa8g-3" target="AsFMAXPC-iEJAhvBXa8g-25" edge="1">
          <mxGeometry width="50" height="50" relative="1" as="geometry">
            <mxPoint x="249" y="155" as="sourcePoint" />
            <mxPoint x="349" y="130" as="targetPoint" />
          </mxGeometry>
        </mxCell>
        <mxCell id="AsFMAXPC-iEJAhvBXa8g-30" value="" style="endArrow=none;html=1;rounded=0;entryX=0.5;entryY=0;entryDx=0;entryDy=0;exitX=0.5;exitY=1;exitDx=0;exitDy=0;" parent="1" source="AsFMAXPC-iEJAhvBXa8g-3" target="AsFMAXPC-iEJAhvBXa8g-28" edge="1">
          <mxGeometry width="50" height="50" relative="1" as="geometry">
            <mxPoint x="259" y="165" as="sourcePoint" />
            <mxPoint x="359" y="140" as="targetPoint" />
          </mxGeometry>
        </mxCell>
        <mxCell id="AsFMAXPC-iEJAhvBXa8g-31" value="" style="endArrow=none;html=1;rounded=0;entryX=0;entryY=0;entryDx=0;entryDy=0;exitX=0.5;exitY=1;exitDx=0;exitDy=0;" parent="1" source="AsFMAXPC-iEJAhvBXa8g-3" target="AsFMAXPC-iEJAhvBXa8g-26" edge="1">
          <mxGeometry width="50" height="50" relative="1" as="geometry">
            <mxPoint x="49" y="310" as="sourcePoint" />
            <mxPoint x="369" y="150" as="targetPoint" />
          </mxGeometry>
        </mxCell>
        <mxCell id="AsFMAXPC-iEJAhvBXa8g-43" value="project" style="rounded=0;whiteSpace=wrap;html=1;" parent="1" vertex="1">
          <mxGeometry x="40" y="440" width="120" height="40" as="geometry" />
        </mxCell>
        <mxCell id="AsFMAXPC-iEJAhvBXa8g-44" value="pro_id" style="ellipse;whiteSpace=wrap;html=1;" parent="1" vertex="1">
          <mxGeometry x="-100" y="480" width="100" height="50" as="geometry" />
        </mxCell>
        <mxCell id="AsFMAXPC-iEJAhvBXa8g-45" value="pro_title" style="ellipse;whiteSpace=wrap;html=1;" parent="1" vertex="1">
          <mxGeometry x="-80" y="545" width="100" height="50" as="geometry" />
        </mxCell>
        <mxCell id="AsFMAXPC-iEJAhvBXa8g-46" value="finish_date" style="ellipse;whiteSpace=wrap;html=1;" parent="1" vertex="1">
          <mxGeometry x="110" y="600" width="100" height="50" as="geometry" />
        </mxCell>
        <mxCell id="AsFMAXPC-iEJAhvBXa8g-47" value="status" style="ellipse;whiteSpace=wrap;html=1;" parent="1" vertex="1">
          <mxGeometry x="200" y="480" width="100" height="50" as="geometry" />
        </mxCell>
        <mxCell id="AsFMAXPC-iEJAhvBXa8g-48" value="assign_date" style="ellipse;whiteSpace=wrap;html=1;" parent="1" vertex="1">
          <mxGeometry x="-10" y="600" width="100" height="50" as="geometry" />
        </mxCell>
        <mxCell id="AsFMAXPC-iEJAhvBXa8g-49" value="score" style="ellipse;whiteSpace=wrap;html=1;" parent="1" vertex="1">
          <mxGeometry x="180" y="545" width="100" height="50" as="geometry" />
        </mxCell>
        <mxCell id="AsFMAXPC-iEJAhvBXa8g-50" value="" style="endArrow=none;html=1;rounded=0;entryX=0.5;entryY=1;entryDx=0;entryDy=0;exitX=1;exitY=0.5;exitDx=0;exitDy=0;" parent="1" source="AsFMAXPC-iEJAhvBXa8g-44" target="AsFMAXPC-iEJAhvBXa8g-43" edge="1">
          <mxGeometry width="50" height="50" relative="1" as="geometry">
            <mxPoint x="60" y="750" as="sourcePoint" />
            <mxPoint x="110" y="700" as="targetPoint" />
          </mxGeometry>
        </mxCell>
        <mxCell id="AsFMAXPC-iEJAhvBXa8g-51" value="" style="endArrow=none;html=1;rounded=0;entryX=0.5;entryY=1;entryDx=0;entryDy=0;exitX=0.5;exitY=0;exitDx=0;exitDy=0;" parent="1" source="AsFMAXPC-iEJAhvBXa8g-48" target="AsFMAXPC-iEJAhvBXa8g-43" edge="1">
          <mxGeometry width="50" height="50" relative="1" as="geometry">
            <mxPoint x="10" y="515" as="sourcePoint" />
            <mxPoint x="50" y="490" as="targetPoint" />
          </mxGeometry>
        </mxCell>
        <mxCell id="AsFMAXPC-iEJAhvBXa8g-52" value="" style="endArrow=none;html=1;rounded=0;entryX=0.5;entryY=1;entryDx=0;entryDy=0;exitX=0.5;exitY=0;exitDx=0;exitDy=0;" parent="1" source="AsFMAXPC-iEJAhvBXa8g-46" target="AsFMAXPC-iEJAhvBXa8g-43" edge="1">
          <mxGeometry width="50" height="50" relative="1" as="geometry">
            <mxPoint x="20" y="525" as="sourcePoint" />
            <mxPoint x="60" y="500" as="targetPoint" />
          </mxGeometry>
        </mxCell>
        <mxCell id="AsFMAXPC-iEJAhvBXa8g-53" value="" style="endArrow=none;html=1;rounded=0;entryX=0.5;entryY=1;entryDx=0;entryDy=0;exitX=1;exitY=0;exitDx=0;exitDy=0;" parent="1" source="AsFMAXPC-iEJAhvBXa8g-45" target="AsFMAXPC-iEJAhvBXa8g-43" edge="1">
          <mxGeometry width="50" height="50" relative="1" as="geometry">
            <mxPoint x="30" y="535" as="sourcePoint" />
            <mxPoint x="70" y="510" as="targetPoint" />
          </mxGeometry>
        </mxCell>
        <mxCell id="AsFMAXPC-iEJAhvBXa8g-54" value="" style="endArrow=none;html=1;rounded=0;entryX=0.5;entryY=1;entryDx=0;entryDy=0;exitX=0;exitY=0;exitDx=0;exitDy=0;" parent="1" source="AsFMAXPC-iEJAhvBXa8g-49" target="AsFMAXPC-iEJAhvBXa8g-43" edge="1">
          <mxGeometry width="50" height="50" relative="1" as="geometry">
            <mxPoint x="170" y="610" as="sourcePoint" />
            <mxPoint x="140" y="490" as="targetPoint" />
          </mxGeometry>
        </mxCell>
        <mxCell id="AsFMAXPC-iEJAhvBXa8g-55" value="" style="endArrow=none;html=1;rounded=0;entryX=0.5;entryY=1;entryDx=0;entryDy=0;exitX=0;exitY=0.5;exitDx=0;exitDy=0;" parent="1" source="AsFMAXPC-iEJAhvBXa8g-47" target="AsFMAXPC-iEJAhvBXa8g-43" edge="1">
          <mxGeometry width="50" height="50" relative="1" as="geometry">
            <mxPoint x="180" y="620" as="sourcePoint" />
            <mxPoint x="150" y="500" as="targetPoint" />
          </mxGeometry>
        </mxCell>
        <mxCell id="AsFMAXPC-iEJAhvBXa8g-56" value="leave" style="rounded=0;whiteSpace=wrap;html=1;" parent="1" vertex="1">
          <mxGeometry x="397" y="800" width="123" height="40" as="geometry" />
        </mxCell>
        <mxCell id="AsFMAXPC-iEJAhvBXa8g-57" value="lv_id" style="ellipse;whiteSpace=wrap;html=1;" parent="1" vertex="1">
          <mxGeometry x="303.5" y="880" width="109" height="50" as="geometry" />
        </mxCell>
        <mxCell id="AsFMAXPC-iEJAhvBXa8g-58" value="status" style="ellipse;whiteSpace=wrap;html=1;" parent="1" vertex="1">
          <mxGeometry x="516" y="880" width="109" height="50" as="geometry" />
        </mxCell>
        <mxCell id="AsFMAXPC-iEJAhvBXa8g-59" value="reason" style="ellipse;whiteSpace=wrap;html=1;" parent="1" vertex="1">
          <mxGeometry x="404" y="930" width="109" height="50" as="geometry" />
        </mxCell>
        <mxCell id="AsFMAXPC-iEJAhvBXa8g-60" value="" style="endArrow=none;html=1;rounded=0;entryX=1;entryY=0;entryDx=0;entryDy=0;exitX=0.5;exitY=1;exitDx=0;exitDy=0;" parent="1" source="AsFMAXPC-iEJAhvBXa8g-56" target="AsFMAXPC-iEJAhvBXa8g-57" edge="1">
          <mxGeometry width="50" height="50" relative="1" as="geometry">
            <mxPoint x="687" y="715" as="sourcePoint" />
            <mxPoint x="787" y="690" as="targetPoint" />
          </mxGeometry>
        </mxCell>
        <mxCell id="AsFMAXPC-iEJAhvBXa8g-61" value="" style="endArrow=none;html=1;rounded=0;entryX=0.5;entryY=0;entryDx=0;entryDy=0;exitX=0.5;exitY=1;exitDx=0;exitDy=0;" parent="1" source="AsFMAXPC-iEJAhvBXa8g-56" target="AsFMAXPC-iEJAhvBXa8g-59" edge="1">
          <mxGeometry width="50" height="50" relative="1" as="geometry">
            <mxPoint x="697" y="725" as="sourcePoint" />
            <mxPoint x="797" y="700" as="targetPoint" />
          </mxGeometry>
        </mxCell>
        <mxCell id="AsFMAXPC-iEJAhvBXa8g-62" value="" style="endArrow=none;html=1;rounded=0;entryX=0;entryY=0;entryDx=0;entryDy=0;exitX=0.5;exitY=1;exitDx=0;exitDy=0;" parent="1" source="AsFMAXPC-iEJAhvBXa8g-56" target="AsFMAXPC-iEJAhvBXa8g-58" edge="1">
          <mxGeometry width="50" height="50" relative="1" as="geometry">
            <mxPoint x="487" y="870" as="sourcePoint" />
            <mxPoint x="807" y="710" as="targetPoint" />
          </mxGeometry>
        </mxCell>
        <mxCell id="AsFMAXPC-iEJAhvBXa8g-65" value="leave_type" style="rounded=0;whiteSpace=wrap;html=1;" parent="1" vertex="1">
          <mxGeometry x="439" y="378" width="121" height="40" as="geometry" />
        </mxCell>
        <mxCell id="AsFMAXPC-iEJAhvBXa8g-66" value="&lt;u&gt;lv_id&lt;/u&gt;" style="ellipse;whiteSpace=wrap;html=1;" parent="1" vertex="1">
          <mxGeometry x="330" y="458" width="109" height="50" as="geometry" />
        </mxCell>
        <mxCell id="AsFMAXPC-iEJAhvBXa8g-67" value="no_leave" style="ellipse;whiteSpace=wrap;html=1;" parent="1" vertex="1">
          <mxGeometry x="560" y="458" width="109" height="50" as="geometry" />
        </mxCell>
        <mxCell id="AsFMAXPC-iEJAhvBXa8g-68" value="lv_name" style="ellipse;whiteSpace=wrap;html=1;" parent="1" vertex="1">
          <mxGeometry x="380" y="519" width="109" height="50" as="geometry" />
        </mxCell>
        <mxCell id="AsFMAXPC-iEJAhvBXa8g-69" value="" style="endArrow=none;html=1;rounded=0;entryX=1;entryY=0;entryDx=0;entryDy=0;exitX=0.5;exitY=1;exitDx=0;exitDy=0;" parent="1" source="AsFMAXPC-iEJAhvBXa8g-65" target="AsFMAXPC-iEJAhvBXa8g-66" edge="1">
          <mxGeometry width="50" height="50" relative="1" as="geometry">
            <mxPoint x="729" y="293" as="sourcePoint" />
            <mxPoint x="829" y="268" as="targetPoint" />
          </mxGeometry>
        </mxCell>
        <mxCell id="AsFMAXPC-iEJAhvBXa8g-70" value="" style="endArrow=none;html=1;rounded=0;entryX=0.5;entryY=0;entryDx=0;entryDy=0;exitX=0.5;exitY=1;exitDx=0;exitDy=0;" parent="1" source="AsFMAXPC-iEJAhvBXa8g-65" target="AsFMAXPC-iEJAhvBXa8g-68" edge="1">
          <mxGeometry width="50" height="50" relative="1" as="geometry">
            <mxPoint x="739" y="303" as="sourcePoint" />
            <mxPoint x="839" y="278" as="targetPoint" />
          </mxGeometry>
        </mxCell>
        <mxCell id="AsFMAXPC-iEJAhvBXa8g-71" value="" style="endArrow=none;html=1;rounded=0;entryX=0;entryY=0;entryDx=0;entryDy=0;exitX=0.5;exitY=1;exitDx=0;exitDy=0;" parent="1" source="AsFMAXPC-iEJAhvBXa8g-65" target="AsFMAXPC-iEJAhvBXa8g-67" edge="1">
          <mxGeometry width="50" height="50" relative="1" as="geometry">
            <mxPoint x="529" y="448" as="sourcePoint" />
            <mxPoint x="849" y="288" as="targetPoint" />
          </mxGeometry>
        </mxCell>
        <mxCell id="AsFMAXPC-iEJAhvBXa8g-72" value="lv_date" style="ellipse;whiteSpace=wrap;html=1;" parent="1" vertex="1">
          <mxGeometry x="505" y="519" width="109" height="50" as="geometry" />
        </mxCell>
        <mxCell id="AsFMAXPC-iEJAhvBXa8g-73" value="" style="endArrow=none;html=1;rounded=0;entryX=0.5;entryY=0;entryDx=0;entryDy=0;exitX=0.5;exitY=1;exitDx=0;exitDy=0;" parent="1" source="AsFMAXPC-iEJAhvBXa8g-65" target="AsFMAXPC-iEJAhvBXa8g-72" edge="1">
          <mxGeometry width="50" height="50" relative="1" as="geometry">
            <mxPoint x="514" y="428" as="sourcePoint" />
            <mxPoint x="594" y="475" as="targetPoint" />
          </mxGeometry>
        </mxCell>
        <mxCell id="AsFMAXPC-iEJAhvBXa8g-76" value="&lt;u&gt;dep_id&lt;/u&gt;" style="ellipse;whiteSpace=wrap;html=1;" parent="1" vertex="1">
          <mxGeometry x="741" y="511" width="109" height="50" as="geometry" />
        </mxCell>
        <mxCell id="AsFMAXPC-iEJAhvBXa8g-78" value="" style="endArrow=none;html=1;rounded=0;exitX=0.5;exitY=1;exitDx=0;exitDy=0;entryX=0.5;entryY=0;entryDx=0;entryDy=0;" parent="1" source="AsFMAXPC-iEJAhvBXa8g-2" target="AsFMAXPC-iEJAhvBXa8g-76" edge="1">
          <mxGeometry width="50" height="50" relative="1" as="geometry">
            <mxPoint x="869" y="450" as="sourcePoint" />
            <mxPoint x="810" y="500" as="targetPoint" />
          </mxGeometry>
        </mxCell>
        <mxCell id="AsFMAXPC-iEJAhvBXa8g-80" value="dep_name" style="ellipse;whiteSpace=wrap;html=1;" parent="1" vertex="1">
          <mxGeometry x="870" y="510" width="109" height="50" as="geometry" />
        </mxCell>
        <mxCell id="AsFMAXPC-iEJAhvBXa8g-81" value="" style="endArrow=none;html=1;rounded=0;exitX=0.5;exitY=1;exitDx=0;exitDy=0;entryX=0.5;entryY=0;entryDx=0;entryDy=0;" parent="1" source="AsFMAXPC-iEJAhvBXa8g-2" target="AsFMAXPC-iEJAhvBXa8g-80" edge="1">
          <mxGeometry width="50" height="50" relative="1" as="geometry">
            <mxPoint x="869" y="450" as="sourcePoint" />
            <mxPoint x="900" y="500" as="targetPoint" />
          </mxGeometry>
        </mxCell>
        <mxCell id="AsFMAXPC-iEJAhvBXa8g-82" value="human_resources" style="rounded=0;whiteSpace=wrap;html=1;" parent="1" vertex="1">
          <mxGeometry x="719" y="680" width="121" height="40" as="geometry" />
        </mxCell>
        <mxCell id="AsFMAXPC-iEJAhvBXa8g-83" value="hr_id" style="ellipse;whiteSpace=wrap;html=1;" parent="1" vertex="1">
          <mxGeometry x="625.5" y="760" width="109" height="50" as="geometry" />
        </mxCell>
        <mxCell id="AsFMAXPC-iEJAhvBXa8g-84" value="hr_pass" style="ellipse;whiteSpace=wrap;html=1;" parent="1" vertex="1">
          <mxGeometry x="838" y="760" width="109" height="50" as="geometry" />
        </mxCell>
        <mxCell id="AsFMAXPC-iEJAhvBXa8g-85" value="hr_uname" style="ellipse;whiteSpace=wrap;html=1;" parent="1" vertex="1">
          <mxGeometry x="725" y="810" width="109" height="50" as="geometry" />
        </mxCell>
        <mxCell id="AsFMAXPC-iEJAhvBXa8g-86" value="" style="endArrow=none;html=1;rounded=0;entryX=1;entryY=0;entryDx=0;entryDy=0;exitX=0.5;exitY=1;exitDx=0;exitDy=0;" parent="1" source="AsFMAXPC-iEJAhvBXa8g-82" target="AsFMAXPC-iEJAhvBXa8g-83" edge="1">
          <mxGeometry width="50" height="50" relative="1" as="geometry">
            <mxPoint x="1009" y="595" as="sourcePoint" />
            <mxPoint x="1109" y="570" as="targetPoint" />
          </mxGeometry>
        </mxCell>
        <mxCell id="AsFMAXPC-iEJAhvBXa8g-87" value="" style="endArrow=none;html=1;rounded=0;entryX=0.5;entryY=0;entryDx=0;entryDy=0;exitX=0.5;exitY=1;exitDx=0;exitDy=0;" parent="1" source="AsFMAXPC-iEJAhvBXa8g-82" target="AsFMAXPC-iEJAhvBXa8g-85" edge="1">
          <mxGeometry width="50" height="50" relative="1" as="geometry">
            <mxPoint x="1019" y="605" as="sourcePoint" />
            <mxPoint x="1119" y="580" as="targetPoint" />
          </mxGeometry>
        </mxCell>
        <mxCell id="AsFMAXPC-iEJAhvBXa8g-88" value="" style="endArrow=none;html=1;rounded=0;entryX=0;entryY=0;entryDx=0;entryDy=0;exitX=0.5;exitY=1;exitDx=0;exitDy=0;" parent="1" source="AsFMAXPC-iEJAhvBXa8g-82" target="AsFMAXPC-iEJAhvBXa8g-84" edge="1">
          <mxGeometry width="50" height="50" relative="1" as="geometry">
            <mxPoint x="809" y="750" as="sourcePoint" />
            <mxPoint x="1129" y="590" as="targetPoint" />
          </mxGeometry>
        </mxCell>
        <mxCell id="AsFMAXPC-iEJAhvBXa8g-89" value="manages" style="rhombus;whiteSpace=wrap;html=1;" parent="1" vertex="1">
          <mxGeometry x="380" y="270" width="80" height="80" as="geometry" />
        </mxCell>
        <mxCell id="AsFMAXPC-iEJAhvBXa8g-97" value="" style="endArrow=classic;html=1;rounded=0;entryX=0.5;entryY=1;entryDx=0;entryDy=0;exitX=0.5;exitY=0;exitDx=0;exitDy=0;" parent="1" source="AsFMAXPC-iEJAhvBXa8g-89" target="AsFMAXPC-iEJAhvBXa8g-5" edge="1">
          <mxGeometry width="50" height="50" relative="1" as="geometry">
            <mxPoint x="500" y="450" as="sourcePoint" />
            <mxPoint x="550" y="400" as="targetPoint" />
          </mxGeometry>
        </mxCell>
        <mxCell id="AsFMAXPC-iEJAhvBXa8g-98" value="" style="endArrow=none;html=1;rounded=0;entryX=1;entryY=0.5;entryDx=0;entryDy=0;exitX=0;exitY=0.5;exitDx=0;exitDy=0;" parent="1" source="AsFMAXPC-iEJAhvBXa8g-2" target="AsFMAXPC-iEJAhvBXa8g-89" edge="1">
          <mxGeometry width="50" height="50" relative="1" as="geometry">
            <mxPoint x="800" y="310" as="sourcePoint" />
            <mxPoint x="550" y="400" as="targetPoint" />
            <Array as="points">
              <mxPoint x="720" y="420" />
              <mxPoint x="720" y="310" />
            </Array>
          </mxGeometry>
        </mxCell>
        <mxCell id="AsFMAXPC-iEJAhvBXa8g-99" value="" style="endArrow=none;html=1;rounded=0;entryX=0.5;entryY=1;entryDx=0;entryDy=0;exitX=0;exitY=0.5;exitDx=0;exitDy=0;" parent="1" source="AsFMAXPC-iEJAhvBXa8g-82" target="AsFMAXPC-iEJAhvBXa8g-89" edge="1">
          <mxGeometry width="50" height="50" relative="1" as="geometry">
            <mxPoint x="810" y="430" as="sourcePoint" />
            <mxPoint x="470" y="320" as="targetPoint" />
            <Array as="points">
              <mxPoint x="700" y="700" />
              <mxPoint x="700" y="360" />
              <mxPoint x="560" y="360" />
              <mxPoint x="420" y="360" />
            </Array>
          </mxGeometry>
        </mxCell>
        <mxCell id="AsFMAXPC-iEJAhvBXa8g-100" value="has" style="rhombus;whiteSpace=wrap;html=1;" parent="1" vertex="1">
          <mxGeometry x="820" y="578" width="80" height="80" as="geometry" />
        </mxCell>
        <mxCell id="AsFMAXPC-iEJAhvBXa8g-101" value="" style="endArrow=classic;html=1;rounded=0;exitX=0.5;exitY=0;exitDx=0;exitDy=0;entryX=1;entryY=0.5;entryDx=0;entryDy=0;" parent="1" source="AsFMAXPC-iEJAhvBXa8g-100" target="AsFMAXPC-iEJAhvBXa8g-2" edge="1">
          <mxGeometry width="50" height="50" relative="1" as="geometry">
            <mxPoint x="850" y="580" as="sourcePoint" />
            <mxPoint x="860" y="440" as="targetPoint" />
            <Array as="points">
              <mxPoint x="860" y="570" />
              <mxPoint x="930" y="570" />
              <mxPoint x="1000" y="570" />
              <mxPoint x="1000" y="420" />
            </Array>
          </mxGeometry>
        </mxCell>
        <mxCell id="AsFMAXPC-iEJAhvBXa8g-102" value="" style="endArrow=none;html=1;rounded=0;entryX=0.5;entryY=1;entryDx=0;entryDy=0;exitX=1;exitY=0.5;exitDx=0;exitDy=0;" parent="1" source="AsFMAXPC-iEJAhvBXa8g-82" target="AsFMAXPC-iEJAhvBXa8g-100" edge="1">
          <mxGeometry width="50" height="50" relative="1" as="geometry">
            <mxPoint x="800" y="670" as="sourcePoint" />
            <mxPoint x="860" y="660" as="targetPoint" />
            <Array as="points">
              <mxPoint x="860" y="700" />
            </Array>
          </mxGeometry>
        </mxCell>
        <mxCell id="AsFMAXPC-iEJAhvBXa8g-103" value="assign" style="rhombus;whiteSpace=wrap;html=1;" parent="1" vertex="1">
          <mxGeometry x="169" y="220" width="80" height="80" as="geometry" />
        </mxCell>
        <mxCell id="AsFMAXPC-iEJAhvBXa8g-107" value="" style="endArrow=classic;html=1;rounded=0;exitX=0;exitY=0.5;exitDx=0;exitDy=0;entryX=1;entryY=0.5;entryDx=0;entryDy=0;" parent="1" target="AsFMAXPC-iEJAhvBXa8g-3" edge="1">
          <mxGeometry width="50" height="50" relative="1" as="geometry">
            <mxPoint x="169" y="260" as="sourcePoint" />
            <mxPoint x="83" y="259" as="targetPoint" />
            <Array as="points" />
          </mxGeometry>
        </mxCell>
        <mxCell id="AsFMAXPC-iEJAhvBXa8g-108" value="" style="endArrow=none;html=1;rounded=0;exitX=0.5;exitY=1;exitDx=0;exitDy=0;entryX=0.5;entryY=0;entryDx=0;entryDy=0;" parent="1" source="AsFMAXPC-iEJAhvBXa8g-103" target="AsFMAXPC-iEJAhvBXa8g-43" edge="1">
          <mxGeometry width="50" height="50" relative="1" as="geometry">
            <mxPoint x="29" y="290" as="sourcePoint" />
            <mxPoint x="90" y="400" as="targetPoint" />
            <Array as="points">
              <mxPoint x="210" y="400" />
              <mxPoint x="100" y="400" />
            </Array>
          </mxGeometry>
        </mxCell>
        <mxCell id="AsFMAXPC-iEJAhvBXa8g-116" value="employee" style="rounded=0;whiteSpace=wrap;html=1;" parent="1" vertex="1">
          <mxGeometry x="38.5" y="680" width="123" height="40" as="geometry" />
        </mxCell>
        <mxCell id="AsFMAXPC-iEJAhvBXa8g-117" value="emp_id" style="ellipse;whiteSpace=wrap;html=1;" parent="1" vertex="1">
          <mxGeometry x="-55" y="760" width="109" height="50" as="geometry" />
        </mxCell>
        <mxCell id="AsFMAXPC-iEJAhvBXa8g-118" value="emp_pass" style="ellipse;whiteSpace=wrap;html=1;" parent="1" vertex="1">
          <mxGeometry x="157.5" y="760" width="109" height="50" as="geometry" />
        </mxCell>
        <mxCell id="AsFMAXPC-iEJAhvBXa8g-119" value="emp_uname" style="ellipse;whiteSpace=wrap;html=1;" parent="1" vertex="1">
          <mxGeometry x="45.5" y="810" width="109" height="50" as="geometry" />
        </mxCell>
        <mxCell id="AsFMAXPC-iEJAhvBXa8g-120" value="" style="endArrow=none;html=1;rounded=0;entryX=1;entryY=0;entryDx=0;entryDy=0;exitX=0.5;exitY=1;exitDx=0;exitDy=0;" parent="1" source="AsFMAXPC-iEJAhvBXa8g-116" target="AsFMAXPC-iEJAhvBXa8g-117" edge="1">
          <mxGeometry width="50" height="50" relative="1" as="geometry">
            <mxPoint x="328.5" y="595" as="sourcePoint" />
            <mxPoint x="428.5" y="570" as="targetPoint" />
          </mxGeometry>
        </mxCell>
        <mxCell id="AsFMAXPC-iEJAhvBXa8g-121" value="" style="endArrow=none;html=1;rounded=0;entryX=0.5;entryY=0;entryDx=0;entryDy=0;exitX=0.5;exitY=1;exitDx=0;exitDy=0;" parent="1" source="AsFMAXPC-iEJAhvBXa8g-116" target="AsFMAXPC-iEJAhvBXa8g-119" edge="1">
          <mxGeometry width="50" height="50" relative="1" as="geometry">
            <mxPoint x="338.5" y="605" as="sourcePoint" />
            <mxPoint x="438.5" y="580" as="targetPoint" />
          </mxGeometry>
        </mxCell>
        <mxCell id="AsFMAXPC-iEJAhvBXa8g-122" value="" style="endArrow=none;html=1;rounded=0;entryX=0;entryY=0;entryDx=0;entryDy=0;exitX=0.5;exitY=1;exitDx=0;exitDy=0;" parent="1" source="AsFMAXPC-iEJAhvBXa8g-116" target="AsFMAXPC-iEJAhvBXa8g-118" edge="1">
          <mxGeometry width="50" height="50" relative="1" as="geometry">
            <mxPoint x="128.5" y="750" as="sourcePoint" />
            <mxPoint x="448.5" y="590" as="targetPoint" />
          </mxGeometry>
        </mxCell>
        <mxCell id="AsFMAXPC-iEJAhvBXa8g-123" value="works" style="rhombus;whiteSpace=wrap;html=1;" parent="1" vertex="1">
          <mxGeometry x="280" y="660" width="80" height="80" as="geometry" />
        </mxCell>
        <mxCell id="AsFMAXPC-iEJAhvBXa8g-124" value="" style="endArrow=none;html=1;rounded=0;entryX=1;entryY=0.5;entryDx=0;entryDy=0;exitX=0;exitY=0.5;exitDx=0;exitDy=0;" parent="1" source="AsFMAXPC-iEJAhvBXa8g-123" target="AsFMAXPC-iEJAhvBXa8g-116" edge="1">
          <mxGeometry width="50" height="50" relative="1" as="geometry">
            <mxPoint x="110" y="730" as="sourcePoint" />
            <mxPoint x="110" y="820" as="targetPoint" />
          </mxGeometry>
        </mxCell>
        <mxCell id="AsFMAXPC-iEJAhvBXa8g-125" value="" style="endArrow=none;html=1;rounded=0;exitX=0.5;exitY=0;exitDx=0;exitDy=0;entryX=1;entryY=0.5;entryDx=0;entryDy=0;" parent="1" source="AsFMAXPC-iEJAhvBXa8g-123" target="AsFMAXPC-iEJAhvBXa8g-43" edge="1">
          <mxGeometry width="50" height="50" relative="1" as="geometry">
            <mxPoint x="120" y="740" as="sourcePoint" />
            <mxPoint x="320" y="460" as="targetPoint" />
            <Array as="points">
              <mxPoint x="320" y="600" />
              <mxPoint x="320" y="460" />
            </Array>
          </mxGeometry>
        </mxCell>
        <mxCell id="AsFMAXPC-iEJAhvBXa8g-126" value="apply_leave" style="rhombus;whiteSpace=wrap;html=1;" parent="1" vertex="1">
          <mxGeometry x="418.5" y="660" width="80" height="80" as="geometry" />
        </mxCell>
        <mxCell id="AsFMAXPC-iEJAhvBXa8g-127" value="" style="endArrow=none;html=1;rounded=0;entryX=1;entryY=0.75;entryDx=0;entryDy=0;exitX=0.5;exitY=0;exitDx=0;exitDy=0;jumpStyle=arc;jumpSize=12;" parent="1" source="AsFMAXPC-iEJAhvBXa8g-126" target="AsFMAXPC-iEJAhvBXa8g-116" edge="1">
          <mxGeometry width="50" height="50" relative="1" as="geometry">
            <mxPoint x="460" y="640" as="sourcePoint" />
            <mxPoint x="172" y="710" as="targetPoint" />
            <Array as="points">
              <mxPoint x="459" y="640" />
              <mxPoint x="260" y="640" />
              <mxPoint x="260" y="680" />
              <mxPoint x="260" y="710" />
            </Array>
          </mxGeometry>
        </mxCell>
        <mxCell id="AsFMAXPC-iEJAhvBXa8g-128" value="" style="endArrow=none;html=1;rounded=0;entryX=0.5;entryY=0;entryDx=0;entryDy=0;exitX=0.5;exitY=1;exitDx=0;exitDy=0;" parent="1" source="AsFMAXPC-iEJAhvBXa8g-126" target="AsFMAXPC-iEJAhvBXa8g-56" edge="1">
          <mxGeometry width="50" height="50" relative="1" as="geometry">
            <mxPoint x="110" y="730" as="sourcePoint" />
            <mxPoint x="110" y="820" as="targetPoint" />
          </mxGeometry>
        </mxCell>
        <mxCell id="AsFMAXPC-iEJAhvBXa8g-129" value="manages" style="rhombus;whiteSpace=wrap;html=1;" parent="1" vertex="1">
          <mxGeometry x="560" y="670" width="80" height="80" as="geometry" />
        </mxCell>
        <mxCell id="AsFMAXPC-iEJAhvBXa8g-130" value="" style="endArrow=classic;html=1;rounded=0;exitX=1;exitY=0.5;exitDx=0;exitDy=0;entryX=0;entryY=0.75;entryDx=0;entryDy=0;" parent="1" source="AsFMAXPC-iEJAhvBXa8g-129" target="AsFMAXPC-iEJAhvBXa8g-82" edge="1">
          <mxGeometry width="50" height="50" relative="1" as="geometry">
            <mxPoint x="870" y="588" as="sourcePoint" />
            <mxPoint x="930" y="430" as="targetPoint" />
            <Array as="points" />
          </mxGeometry>
        </mxCell>
        <mxCell id="AsFMAXPC-iEJAhvBXa8g-131" value="salary" style="rounded=0;whiteSpace=wrap;html=1;" parent="1" vertex="1">
          <mxGeometry x="758" y="880" width="121" height="40" as="geometry" />
        </mxCell>
        <mxCell id="AsFMAXPC-iEJAhvBXa8g-132" value="sal_id" style="ellipse;whiteSpace=wrap;html=1;" parent="1" vertex="1">
          <mxGeometry x="649" y="960" width="109" height="50" as="geometry" />
        </mxCell>
        <mxCell id="AsFMAXPC-iEJAhvBXa8g-133" value="total" style="ellipse;whiteSpace=wrap;html=1;" parent="1" vertex="1">
          <mxGeometry x="879" y="960" width="109" height="50" as="geometry" />
        </mxCell>
        <mxCell id="AsFMAXPC-iEJAhvBXa8g-134" value="base" style="ellipse;whiteSpace=wrap;html=1;" parent="1" vertex="1">
          <mxGeometry x="699" y="1021" width="109" height="50" as="geometry" />
        </mxCell>
        <mxCell id="AsFMAXPC-iEJAhvBXa8g-135" value="" style="endArrow=none;html=1;rounded=0;entryX=1;entryY=0;entryDx=0;entryDy=0;exitX=0.5;exitY=1;exitDx=0;exitDy=0;" parent="1" source="AsFMAXPC-iEJAhvBXa8g-131" target="AsFMAXPC-iEJAhvBXa8g-132" edge="1">
          <mxGeometry width="50" height="50" relative="1" as="geometry">
            <mxPoint x="1048" y="795" as="sourcePoint" />
            <mxPoint x="1148" y="770" as="targetPoint" />
          </mxGeometry>
        </mxCell>
        <mxCell id="AsFMAXPC-iEJAhvBXa8g-136" value="" style="endArrow=none;html=1;rounded=0;entryX=0.5;entryY=0;entryDx=0;entryDy=0;exitX=0.5;exitY=1;exitDx=0;exitDy=0;" parent="1" source="AsFMAXPC-iEJAhvBXa8g-131" target="AsFMAXPC-iEJAhvBXa8g-134" edge="1">
          <mxGeometry width="50" height="50" relative="1" as="geometry">
            <mxPoint x="1058" y="805" as="sourcePoint" />
            <mxPoint x="1158" y="780" as="targetPoint" />
          </mxGeometry>
        </mxCell>
        <mxCell id="AsFMAXPC-iEJAhvBXa8g-137" value="" style="endArrow=none;html=1;rounded=0;entryX=0;entryY=0;entryDx=0;entryDy=0;exitX=0.5;exitY=1;exitDx=0;exitDy=0;" parent="1" source="AsFMAXPC-iEJAhvBXa8g-131" target="AsFMAXPC-iEJAhvBXa8g-133" edge="1">
          <mxGeometry width="50" height="50" relative="1" as="geometry">
            <mxPoint x="848" y="950" as="sourcePoint" />
            <mxPoint x="1168" y="790" as="targetPoint" />
          </mxGeometry>
        </mxCell>
        <mxCell id="AsFMAXPC-iEJAhvBXa8g-138" value="bonus" style="ellipse;whiteSpace=wrap;html=1;" parent="1" vertex="1">
          <mxGeometry x="824" y="1021" width="109" height="50" as="geometry" />
        </mxCell>
        <mxCell id="AsFMAXPC-iEJAhvBXa8g-139" value="" style="endArrow=none;html=1;rounded=0;entryX=0.5;entryY=0;entryDx=0;entryDy=0;exitX=0.5;exitY=1;exitDx=0;exitDy=0;" parent="1" source="AsFMAXPC-iEJAhvBXa8g-131" target="AsFMAXPC-iEJAhvBXa8g-138" edge="1">
          <mxGeometry width="50" height="50" relative="1" as="geometry">
            <mxPoint x="833" y="930" as="sourcePoint" />
            <mxPoint x="913" y="977" as="targetPoint" />
          </mxGeometry>
        </mxCell>
        <mxCell id="AsFMAXPC-iEJAhvBXa8g-140" value="" style="endArrow=none;html=1;rounded=0;exitX=0.5;exitY=1;exitDx=0;exitDy=0;entryX=0;entryY=0.5;entryDx=0;entryDy=0;" parent="1" source="AsFMAXPC-iEJAhvBXa8g-129" target="AsFMAXPC-iEJAhvBXa8g-131" edge="1">
          <mxGeometry width="50" height="50" relative="1" as="geometry">
            <mxPoint x="469" y="750" as="sourcePoint" />
            <mxPoint x="680" y="940" as="targetPoint" />
            <Array as="points">
              <mxPoint x="600" y="800" />
              <mxPoint x="600" y="840" />
              <mxPoint x="680" y="840" />
              <mxPoint x="680" y="900" />
            </Array>
          </mxGeometry>
        </mxCell>
        <mxCell id="AsFMAXPC-iEJAhvBXa8g-141" value="" style="endArrow=none;html=1;rounded=0;exitX=0;exitY=0.5;exitDx=0;exitDy=0;entryX=1;entryY=0.5;entryDx=0;entryDy=0;" parent="1" source="AsFMAXPC-iEJAhvBXa8g-129" target="AsFMAXPC-iEJAhvBXa8g-56" edge="1">
          <mxGeometry width="50" height="50" relative="1" as="geometry">
            <mxPoint x="610" y="760" as="sourcePoint" />
            <mxPoint x="530" y="820" as="targetPoint" />
            <Array as="points">
              <mxPoint x="530" y="710" />
              <mxPoint x="530" y="770" />
              <mxPoint x="530" y="820" />
            </Array>
          </mxGeometry>
        </mxCell>
        <mxCell id="AsFMAXPC-iEJAhvBXa8g-142" value="has" style="rhombus;whiteSpace=wrap;html=1;" parent="1" vertex="1">
          <mxGeometry x="505" y="600" width="80" height="80" as="geometry" />
        </mxCell>
        <mxCell id="AsFMAXPC-iEJAhvBXa8g-143" value="" style="endArrow=classic;html=1;rounded=0;entryX=0.75;entryY=0;entryDx=0;entryDy=0;jumpStyle=arc;jumpSize=12;exitX=0.5;exitY=1;exitDx=0;exitDy=0;" parent="1" source="AsFMAXPC-iEJAhvBXa8g-142" target="AsFMAXPC-iEJAhvBXa8g-56" edge="1">
          <mxGeometry width="50" height="50" relative="1" as="geometry">
            <mxPoint x="500" y="750" as="sourcePoint" />
            <mxPoint x="729" y="720" as="targetPoint" />
            <Array as="points">
              <mxPoint x="545" y="750" />
              <mxPoint x="489" y="750" />
            </Array>
          </mxGeometry>
        </mxCell>
        <mxCell id="AsFMAXPC-iEJAhvBXa8g-144" value="" style="endArrow=none;html=1;rounded=0;entryX=0.5;entryY=0;entryDx=0;entryDy=0;exitX=0.5;exitY=0;exitDx=0;exitDy=0;" parent="1" source="AsFMAXPC-iEJAhvBXa8g-65" target="AsFMAXPC-iEJAhvBXa8g-142" edge="1">
          <mxGeometry width="50" height="50" relative="1" as="geometry">
            <mxPoint x="590" y="400" as="sourcePoint" />
            <mxPoint x="569" y="529" as="targetPoint" />
            <Array as="points">
              <mxPoint x="500" y="370" />
              <mxPoint x="680" y="370" />
              <mxPoint x="680" y="600" />
            </Array>
          </mxGeometry>
        </mxCell>
        <mxCell id="VT1fRiK670eZDrI_wkgf-2" value="" style="endArrow=none;html=1;rounded=0;exitX=0.5;exitY=0;exitDx=0;exitDy=0;entryX=0.5;entryY=0;entryDx=0;entryDy=0;jumpSize=12;jumpStyle=arc;" edge="1" parent="1" source="AsFMAXPC-iEJAhvBXa8g-129" target="AsFMAXPC-iEJAhvBXa8g-3">
          <mxGeometry width="50" height="50" relative="1" as="geometry">
            <mxPoint x="790" y="730" as="sourcePoint" />
            <mxPoint x="390" y="590" as="targetPoint" />
            <Array as="points">
              <mxPoint x="600" y="590" />
              <mxPoint x="310" y="590" />
              <mxPoint x="310" y="250" />
              <mxPoint x="260" y="250" />
              <mxPoint x="260" y="210" />
              <mxPoint x="140" y="210" />
              <mxPoint x="19" y="210" />
            </Array>
          </mxGeometry>
        </mxCell>
      </root>
    </mxGraphModel>
  </diagram>
</mxfile>
